<svg xmlns="http://www.w3.org/2000/svg" viewBox="0 0 320 200" width="320" height="200" fill="none">
  <rect width="320" height="200" fill="#ffffff"/>
  <rect x="0" y="0" width="320" height="14" fill="#fafafa"/>
  <rect x="10" y="6" width="60" height="3" rx="1.5" fill="#a3a3a3"/>
  <rect x="100" y="44" width="120" height="6" rx="1" fill="#1a1a1a"/>
  <rect x="80" y="56" width="160" height="6" rx="1" fill="#1a1a1a"/>
  <rect x="60" y="68" width="200" height="6" rx="1" fill="#1a1a1a"/>
  <rect x="120" y="84" width="80" height="3" rx="1" fill="#737373"/>
  <rect x="135" y="91" width="50" height="3" rx="1" fill="#737373"/>
  <rect x="135" y="108" width="50" height="9" rx="2" fill="#1a1a1a"/>
  <rect x="0" y="130" width="320" height="40" fill="#fafafa"/>
  <rect x="40" y="142" width="100" height="14" rx="2" fill="#ffffff" stroke="#e5e5e5"/>
  <rect x="180" y="142" width="100" height="14" rx="2" fill="#ffffff" stroke="#e5e5e5"/>
  <rect x="0" y="170" width="320" height="30" fill="#ffffff"/>
  <rect x="20" y="184" width="40" height="3" rx="1" fill="#a3a3a3"/>
  <rect x="260" y="184" width="40" height="3" rx="1" fill="#a3a3a3"/>
</svg>
