<svg xmlns="http://www.w3.org/2000/svg" viewBox="0 0 320 200" width="320" height="200" fill="none">
  <rect width="320" height="200" fill="#ffffff"/>
  <rect x="0" y="0" width="320" height="14" fill="#f5f5f5"/>
  <rect x="10" y="6" width="40" height="3" rx="1.5" fill="#d4d4d4"/>
  <rect x="240" y="5" width="35" height="5" rx="2.5" fill="#0ea5e9"/>
  <rect x="20" y="35" width="120" height="8" rx="1" fill="#1a1a1a"/>
  <rect x="20" y="48" width="100" height="6" rx="1" fill="#1a1a1a"/>
  <rect x="20" y="64" width="130" height="3" rx="1" fill="#737373"/>
  <rect x="20" y="71" width="115" height="3" rx="1" fill="#737373"/>
  <rect x="20" y="84" width="40" height="8" rx="2" fill="#0ea5e9"/>
  <rect x="64" y="84" width="40" height="8" rx="2" fill="#ffffff" stroke="#d4d4d4"/>
  <rect x="170" y="32" width="130" height="78" rx="4" fill="url(#g)"/>
  <defs>
    <linearGradient id="g" x1="0" y1="0" x2="1" y2="1">
      <stop offset="0%" stop-color="#0ea5e9" stop-opacity="0.25"/>
      <stop offset="100%" stop-color="#a78bfa" stop-opacity="0.15"/>
    </linearGradient>
  </defs>
  <rect x="0" y="120" width="320" height="50" fill="#fafafa"/>
  <rect x="14" y="130" width="60" height="14" rx="2" fill="#ffffff" stroke="#e5e5e5"/>
  <rect x="78" y="130" width="60" height="14" rx="2" fill="#ffffff" stroke="#e5e5e5"/>
  <rect x="142" y="130" width="60" height="14" rx="2" fill="#ffffff" stroke="#e5e5e5"/>
  <rect x="206" y="130" width="60" height="14" rx="2" fill="#ffffff" stroke="#e5e5e5"/>
  <rect x="14" y="148" width="60" height="14" rx="2" fill="#ffffff" stroke="#e5e5e5"/>
  <rect x="78" y="148" width="60" height="14" rx="2" fill="#ffffff" stroke="#e5e5e5"/>
  <rect x="142" y="148" width="60" height="14" rx="2" fill="#ffffff" stroke="#e5e5e5"/>
  <rect x="206" y="148" width="60" height="14" rx="2" fill="#ffffff" stroke="#e5e5e5"/>
</svg>
