<svg xmlns="http://www.w3.org/2000/svg" viewBox="0 0 320 200" width="320" height="200" fill="none">
  <rect width="320" height="200" fill="#ffffff"/>
  <rect x="0" y="0" width="320" height="14" fill="#f5f5f5"/>
  <rect x="10" y="6" width="40" height="3" rx="1.5" fill="#d4d4d4"/>
  <rect x="240" y="5" width="35" height="5" rx="2.5" fill="#981b1b"/>
  <rect x="60" y="42" width="200" height="8" rx="1" fill="#1a1a1a"/>
  <rect x="80" y="56" width="160" height="6" rx="1" fill="#1a1a1a"/>
  <rect x="90" y="74" width="140" height="4" rx="1" fill="#737373"/>
  <rect x="110" y="84" width="100" height="4" rx="1" fill="#737373"/>
  <rect x="125" y="98" width="32" height="8" rx="2" fill="#981b1b"/>
  <rect x="163" y="98" width="32" height="8" rx="2" fill="#ffffff" stroke="#d4d4d4"/>
  <rect x="0" y="120" width="320" height="50" fill="#fafafa"/>
  <rect x="20" y="135" width="80" height="20" rx="2" fill="#ffffff" stroke="#e5e5e5"/>
  <rect x="120" y="135" width="80" height="20" rx="2" fill="#ffffff" stroke="#e5e5e5"/>
  <rect x="220" y="135" width="80" height="20" rx="2" fill="#ffffff" stroke="#e5e5e5"/>
  <rect x="0" y="170" width="320" height="30" fill="#981b1b"/>
</svg>
